<svg width="70" height="51" viewBox="0 0 70 51" fill="none" xmlns="http://www.w3.org/2000/svg">
<path id="Vector" d="M15.6743 3.85276L54.5675 3.85219C54.5756 3.85221 54.5835 3.84937 54.5893 3.84428C54.5951 3.8392 54.5985 3.83227 54.5986 3.825C54.6001 2.93955 54.5999 2.05165 54.598 1.16129C54.5969 0.647575 54.8501 0.246574 55.3394 0.0698615C55.5609 -0.0105654 56.099 -0.0258581 56.3391 0.0466394C56.7095 0.158784 56.9582 0.385339 57.085 0.726303C57.1375 0.867522 57.1636 1.08426 57.1632 1.37652C57.1617 2.18154 57.1613 2.99808 57.1621 3.82614C57.1621 3.8338 57.1652 3.84115 57.1707 3.84656C57.1762 3.85198 57.1837 3.85502 57.1915 3.85502C60.2315 3.84407 63.2564 3.84747 66.2662 3.86522C68.5136 3.87881 69.9658 5.61592 69.9669 7.79028C69.9737 20.5476 69.9769 33.305 69.9766 46.0627C69.9766 46.0665 69.9836 46.244 69.9975 46.5951C70.0689 48.3957 68.5838 49.9419 66.8632 50.2058C66.6653 50.236 66.2884 50.2511 65.7326 50.2511C45.1018 50.2519 24.471 50.2519 3.84019 50.2511C1.75193 50.2511 0.172842 48.8187 0.0148201 46.7107C0.00500277 46.5759 9.43939e-05 46.395 9.43939e-05 46.1681C-0.000283197 33.4406 0.000472037 20.713 0.00235999 7.98511C0.00235999 6.20949 0.661634 4.82694 2.30755 4.13368C2.83599 3.91166 3.42163 3.86522 4.07185 3.86182C7.04726 3.84785 10.0359 3.84521 13.0377 3.85389C13.0461 3.85389 13.054 3.85063 13.06 3.8448C13.0659 3.83897 13.0693 3.83105 13.0695 3.82274C13.0706 3.03773 13.0697 2.25177 13.0666 1.46487C13.0644 0.8005 13.1686 0.304345 13.8205 0.0698615C14.0465 -0.0111318 14.5913 -0.026424 14.8355 0.0506045C15.3815 0.223352 15.6341 0.63908 15.6329 1.19357C15.631 2.06581 15.6309 2.94144 15.6324 3.82047C15.6324 3.82904 15.6368 3.83725 15.6446 3.8433C15.6525 3.84936 15.6632 3.85276 15.6743 3.85276ZM67.4103 7.64188C67.4097 6.97921 66.9696 6.43491 66.2809 6.43038C63.2496 6.41263 60.2179 6.41131 57.1859 6.42642C57.1788 6.42657 57.172 6.42938 57.167 6.43425C57.162 6.43912 57.1592 6.44566 57.1592 6.45247L57.1598 9.24192C57.1598 9.35936 57.1302 9.46829 57.0709 9.56873C56.8324 9.97143 56.304 10.0196 55.856 10.0167C55.1067 10.0128 54.5952 9.6248 54.5975 8.83413C54.6001 8.03779 54.6003 7.24164 54.598 6.44567C54.598 6.43771 54.5949 6.43008 54.5892 6.42445C54.5836 6.41882 54.576 6.41566 54.568 6.41566C52.2045 6.40376 49.7872 6.41792 47.4803 6.41736C36.8726 6.41471 26.2657 6.41528 15.6595 6.41905C15.6526 6.41906 15.6459 6.42184 15.6409 6.42682C15.6359 6.4318 15.6331 6.43857 15.6329 6.44567C15.6303 7.34887 15.6307 8.25339 15.6341 9.15923C15.6363 9.64916 15.3344 9.91536 14.849 9.97823C14.4288 10.0332 13.9394 10.0722 13.5832 9.8372C13.2313 9.60498 13.0568 9.27081 13.0598 8.83469C13.0647 8.04062 13.0685 7.24711 13.0712 6.45417C13.0713 6.44852 13.0702 6.44291 13.068 6.4377C13.0657 6.4325 13.0624 6.4278 13.0583 6.42391C13.0541 6.42002 13.0492 6.41703 13.0438 6.41512C13.0384 6.41321 13.0327 6.41243 13.027 6.41282C12.6832 6.43888 12.251 6.41622 12.0041 6.41566C9.34925 6.41264 6.69365 6.41641 4.0373 6.42698C3.70388 6.42812 3.45977 6.45644 3.30496 6.51194C2.81334 6.68677 2.56696 7.08475 2.56582 7.70588C2.56129 10.6911 2.56054 13.6609 2.56356 16.6151C2.56356 16.6321 2.5709 16.6484 2.58396 16.6604C2.59703 16.6724 2.61475 16.6791 2.63322 16.6791H67.3678C67.3797 16.6791 67.391 16.6745 67.3994 16.6662C67.4078 16.6579 67.4125 16.6467 67.4125 16.635C67.4152 13.641 67.4144 10.6434 67.4103 7.64188ZM16.4106 19.2743C16.4106 19.2656 16.4071 19.2573 16.401 19.2511C16.3948 19.2449 16.3864 19.2415 16.3777 19.2415H2.59528C2.58656 19.2415 2.57821 19.2449 2.57205 19.2511C2.56589 19.2573 2.56243 19.2656 2.56243 19.2743V27.6625C2.56243 27.6712 2.56589 27.6796 2.57205 27.6857C2.57821 27.6919 2.58656 27.6954 2.59528 27.6954H16.3777C16.3864 27.6954 16.3948 27.6919 16.401 27.6857C16.4071 27.6796 16.4106 27.6712 16.4106 27.6625V19.2743ZM33.84 19.2585C33.84 19.254 33.8382 19.2496 33.835 19.2465C33.8318 19.2433 33.8275 19.2415 33.823 19.2415H18.9905C18.986 19.2415 18.9816 19.2433 18.9785 19.2465C18.9753 19.2496 18.9735 19.254 18.9735 19.2585V27.6784C18.9735 27.6829 18.9753 27.6872 18.9785 27.6904C18.9816 27.6936 18.986 27.6954 18.9905 27.6954H33.823C33.8275 27.6954 33.8318 27.6936 33.835 27.6904C33.8382 27.6872 33.84 27.6829 33.84 27.6784V19.2585ZM51.2575 19.2568C51.2575 19.2527 51.2559 19.2488 51.253 19.246C51.2501 19.2431 51.2463 19.2415 51.2422 19.2415H36.4051C36.4011 19.2415 36.3972 19.2431 36.3943 19.246C36.3915 19.2488 36.3899 19.2527 36.3899 19.2568V27.6801C36.3899 27.6841 36.3915 27.688 36.3943 27.6909C36.3972 27.6938 36.4011 27.6954 36.4051 27.6954H51.2422C51.2463 27.6954 51.2501 27.6938 51.253 27.6909C51.2559 27.688 51.2575 27.6841 51.2575 27.6801V19.2568ZM67.4137 19.2885C67.4137 19.2823 67.4125 19.2762 67.4101 19.2705C67.4077 19.2648 67.4043 19.2596 67.3999 19.2552C67.3955 19.2509 67.3904 19.2474 67.3847 19.2451C67.379 19.2427 67.3728 19.2415 67.3667 19.2415H53.8674C53.8612 19.2415 53.8551 19.2427 53.8494 19.2451C53.8437 19.2474 53.8385 19.2509 53.8342 19.2552C53.8298 19.2596 53.8263 19.2648 53.824 19.2705C53.8216 19.2762 53.8204 19.2823 53.8204 19.2885V27.6484C53.8204 27.6608 53.8253 27.6728 53.8342 27.6816C53.843 27.6904 53.8549 27.6954 53.8674 27.6954H67.3667C67.3791 27.6954 67.3911 27.6904 67.3999 27.6816C67.4087 27.6728 67.4137 27.6608 67.4137 27.6484V19.2885ZM16.4106 30.29C16.4106 30.2814 16.4072 30.2732 16.4011 30.2672C16.3951 30.2611 16.3869 30.2577 16.3783 30.2577H2.59471C2.58615 30.2577 2.57794 30.2611 2.57188 30.2672C2.56583 30.2732 2.56243 30.2814 2.56243 30.29V37.6598C2.56243 37.6684 2.56583 37.6766 2.57188 37.6826C2.57794 37.6887 2.58615 37.6921 2.59471 37.6921H16.3783C16.3869 37.6921 16.3951 37.6887 16.4011 37.6826C16.4072 37.6766 16.4106 37.6684 16.4106 37.6598V30.29ZM33.84 30.2905C33.84 30.2818 33.8365 30.2735 33.8304 30.2673C33.8242 30.2612 33.8158 30.2577 33.8071 30.2577H19.0063C18.9976 30.2577 18.9893 30.2612 18.9831 30.2673C18.9769 30.2735 18.9735 30.2818 18.9735 30.2905V37.6592C18.9735 37.6679 18.9769 37.6763 18.9831 37.6825C18.9893 37.6886 18.9976 37.6921 19.0063 37.6921H33.8071C33.8158 37.6921 33.8242 37.6886 33.8304 37.6825C33.8365 37.6763 33.84 37.6679 33.84 37.6592V30.2905ZM67.4137 30.2968C67.4137 30.2864 67.4096 30.2765 67.4022 30.2691C67.3949 30.2618 67.385 30.2577 67.3746 30.2577H53.8595C53.8491 30.2577 53.8392 30.2618 53.8318 30.2691C53.8245 30.2765 53.8204 30.2864 53.8204 30.2968V37.653C53.8204 37.6634 53.8245 37.6733 53.8318 37.6806C53.8392 37.688 53.8491 37.6921 53.8595 37.6921H67.3746C67.385 37.6921 67.3949 37.688 67.4022 37.6806C67.4096 37.6733 67.4137 37.6634 67.4137 37.653V30.2968ZM51.2575 30.2922C51.2575 30.2832 51.2539 30.2746 51.2475 30.2682C51.2412 30.2618 51.2325 30.2583 51.2235 30.2583H36.4238C36.4148 30.2583 36.4062 30.2618 36.3998 30.2682C36.3934 30.2746 36.3899 30.2832 36.3899 30.2922V37.6575C36.3899 37.6665 36.3934 37.6752 36.3998 37.6816C36.4062 37.6879 36.4148 37.6915 36.4238 37.6915H51.2235C51.2325 37.6915 51.2412 37.6879 51.2475 37.6816C51.2539 37.6752 51.2575 37.6665 51.2575 37.6575V30.2922ZM33.84 40.2697C33.84 40.2657 33.8384 40.2618 33.8355 40.2589C33.8326 40.256 33.8287 40.2544 33.8247 40.2544H18.9888C18.9847 40.2544 18.9808 40.256 18.978 40.2589C18.9751 40.2618 18.9735 40.2657 18.9735 40.2697V47.6735C18.9735 47.6776 18.9751 47.6815 18.978 47.6843C18.9808 47.6872 18.9847 47.6888 18.9888 47.6888H33.8247C33.8287 47.6888 33.8326 47.6872 33.8355 47.6843C33.8384 47.6815 33.84 47.6776 33.84 47.6735V40.2697ZM36.3978 47.6661C36.3975 47.669 36.3979 47.672 36.3988 47.6747C36.3997 47.6774 36.4012 47.68 36.4031 47.6821C36.405 47.6842 36.4074 47.6859 36.41 47.6871C36.4125 47.6882 36.4153 47.6888 36.4182 47.6888H51.215C51.2264 47.6888 51.2374 47.6847 51.2455 47.6774C51.2535 47.67 51.2581 47.6601 51.2581 47.6497V40.2833C51.2581 40.2756 51.2554 40.2683 51.2506 40.2629C51.2458 40.2575 51.2393 40.2544 51.2326 40.2544L36.4182 40.255C36.4107 40.255 36.4035 40.2579 36.3981 40.2631C36.3928 40.2683 36.3899 40.2754 36.3899 40.2827C36.3899 42.708 36.3899 45.1331 36.3899 47.558C36.3997 47.5621 36.4023 47.5982 36.3978 47.6661ZM2.56639 46.4456C2.56809 47.149 3.00194 47.6684 3.72465 47.6684C7.94083 47.6696 12.1564 47.6888 16.3692 47.6888C16.3802 47.6888 16.3907 47.6843 16.3985 47.6764C16.4062 47.6684 16.4106 47.6576 16.4106 47.6463V40.2833C16.4106 40.2758 16.4076 40.2686 16.4023 40.2633C16.397 40.258 16.3898 40.255 16.3823 40.255H2.59075C2.58354 40.255 2.57662 40.2578 2.57152 40.2629C2.56642 40.268 2.56356 40.275 2.56356 40.2822C2.56054 42.3374 2.56148 44.3919 2.56639 46.4456ZM66.6717 47.6186C67.0563 47.4815 67.4647 47.1015 67.4307 46.654C67.4193 46.5068 67.4137 46.4318 67.4137 46.4292C67.4137 44.3815 67.4137 42.3336 67.4137 40.2856C67.4137 40.2775 67.4107 40.2697 67.4054 40.2639C67.4001 40.2582 67.3929 40.255 67.3854 40.255H53.8487C53.8412 40.255 53.834 40.258 53.8287 40.2633C53.8234 40.2686 53.8204 40.2758 53.8204 40.2833V47.6463C53.8204 47.6576 53.8248 47.6684 53.8325 47.6764C53.8403 47.6843 53.8508 47.6888 53.8617 47.6888C57.9042 47.6888 61.9465 47.6888 65.9886 47.6888C66.313 47.6888 66.5407 47.6654 66.6717 47.6186Z" fill="white"/>
</svg>
