<svg width="109" height="125" viewBox="0 0 109 125" fill="none" xmlns="http://www.w3.org/2000/svg">
<g id="pngwing.com (2) 1">
<g id="Group">
<path id="Vector" d="M26.5353 36.1785C25.9224 36.7078 24.4442 38.4782 25.3365 39.8041C25.5662 40.146 25.9259 40.222 26.222 40.3549C26.2451 40.3655 26.2699 40.3586 26.2911 40.3359C26.3737 40.249 26.3977 40.1215 26.3631 39.9535C26.3592 39.9343 26.3525 39.9167 26.3435 39.9024C26.3344 39.8881 26.3234 39.8774 26.3112 39.8712C26.0165 39.7142 25.4396 39.6141 25.3718 38.9543C25.2874 38.1287 26.2565 37.0485 26.5851 36.7205C26.7269 36.5787 26.7712 36.3165 26.599 36.1747C26.5895 36.1668 26.5788 36.163 26.5678 36.1636C26.5568 36.1643 26.5457 36.1694 26.5353 36.1785Z" stroke="#808080" stroke-width="0.496875"/>
<path id="Vector_2" d="M26.2489 46.6866C26.3149 46.9728 26.4025 47.2358 26.5118 47.4756C26.5182 47.4902 26.5267 47.502 26.5365 47.5101C26.5463 47.5182 26.5573 47.5224 26.5685 47.5224H27.3121C27.3238 47.5224 27.3352 47.5174 27.3452 47.5079C27.3552 47.4984 27.3636 47.4847 27.3695 47.468L27.6372 46.7246C27.6425 46.7105 27.6443 46.6923 27.6426 46.6728C27.6408 46.6533 27.6355 46.6337 27.6276 46.617C27.3204 45.9534 26.5816 45.9585 26.2586 46.5815C26.2516 46.5952 26.247 46.6124 26.2453 46.631C26.2435 46.6497 26.2448 46.669 26.2489 46.6866Z" stroke="#808080" stroke-width="0.496875"/>
<path id="Vector_3" d="M27.5032 47.9744C27.5033 47.953 27.501 47.9317 27.4965 47.9118C27.4921 47.892 27.4856 47.874 27.4773 47.8587C27.469 47.8435 27.4592 47.8314 27.4484 47.8231C27.4376 47.8149 27.426 47.8106 27.4143 47.8105L26.4514 47.8043C26.4397 47.8042 26.4281 47.8084 26.4172 47.8165C26.4064 47.8247 26.3965 47.8366 26.3882 47.8518C26.3799 47.8669 26.3733 47.8849 26.3687 47.9046C26.3642 47.9244 26.3619 47.9457 26.3618 47.9671L26.3602 48.8434C26.3601 48.8649 26.3624 48.8861 26.3668 48.906C26.3713 48.9258 26.3778 48.9439 26.3861 48.9591C26.3943 48.9743 26.4042 48.9864 26.415 48.9947C26.4258 49.003 26.4374 49.0073 26.4491 49.0074L27.412 49.0135C27.4237 49.0136 27.4353 49.0094 27.4462 49.0013C27.457 48.9932 27.4669 48.9812 27.4752 48.9661C27.4835 48.951 27.4901 48.933 27.4946 48.9132C27.4992 48.8934 27.5015 48.8722 27.5015 48.8507L27.5032 47.9744Z" stroke="#808080" stroke-width="0.496875"/>
<path id="Vector_4" d="M26.5734 49.3663C26.3008 52.7517 26.034 56.1012 25.773 59.4148C25.7559 59.636 25.7958 59.8526 25.8927 60.0645C26.2312 60.804 26.565 61.5309 26.8943 62.2451C26.8993 62.256 26.9057 62.2646 26.9129 62.2701C26.9202 62.2757 26.9282 62.2782 26.9364 62.2773C26.9445 62.2765 26.9527 62.2723 26.9602 62.2653C26.9678 62.2582 26.9746 62.2483 26.9801 62.2362L28.0696 59.8631C28.0837 59.832 28.0943 59.7968 28.1005 59.7597C28.1067 59.7226 28.1084 59.6845 28.1056 59.6478L27.3073 49.3917C27.3052 49.3649 27.2993 49.3404 27.2906 49.3227C27.282 49.305 27.2712 49.2953 27.2603 49.2954H26.6204C26.6089 49.2954 26.5977 49.3025 26.5891 49.3156C26.5805 49.3286 26.5749 49.3466 26.5734 49.3663Z" stroke="#808080" stroke-width="0.496875"/>
<path id="Vector_5" d="M15.2834 49.5409C13.7511 51.4708 11.8502 52.3142 10.0531 51.2543C10.0305 51.2408 10.0226 51.2556 10.0295 51.2986L11.9242 63.0909C11.927 63.1075 11.9318 63.1227 11.9381 63.1354C11.9444 63.1481 11.9522 63.158 11.9609 63.1643C13.7242 64.4421 15.7039 63.5151 17.2202 61.5497C17.2289 61.5387 17.2356 61.5242 17.2394 61.5083C17.2433 61.4924 17.2441 61.4758 17.2417 61.4611L15.3311 49.5726C15.3296 49.5638 15.3271 49.5558 15.3236 49.5492C15.3202 49.5426 15.316 49.5375 15.3113 49.5344C15.3067 49.5313 15.3017 49.5303 15.2969 49.5315C15.292 49.5326 15.2874 49.5358 15.2834 49.5409Z" stroke="#808080" stroke-width="0.496875"/>
</g>
<path id="Vector_6" d="M61.9273 22.4531C61.9273 25.4839 60.8774 28.3906 59.0086 30.5338C57.1398 32.6769 54.6052 33.8809 51.9623 33.8809C49.3194 33.8809 46.7848 32.6769 44.916 30.5338C43.0472 28.3906 41.9973 25.4839 41.9973 22.4531C41.9973 19.4223 43.0472 16.5156 44.916 14.3725C46.7848 12.2294 49.3194 11.0254 51.9623 11.0254C54.6052 11.0254 57.1398 12.2294 59.0086 14.3725C60.8774 16.5156 61.9273 19.4223 61.9273 22.4531ZM50.6713 21.2246C49.1624 22.041 45.5228 24.7715 47.7198 26.8164C48.2853 27.3438 49.1709 27.4609 49.8998 27.666C49.9567 27.6823 50.0179 27.6717 50.0701 27.6367C50.2734 27.5026 50.3324 27.306 50.2473 27.0469C50.2377 27.0172 50.2211 26.9902 50.1989 26.9681C50.1767 26.946 50.1495 26.9295 50.1195 26.9199C49.394 26.6777 47.9736 26.5234 47.8067 25.5059C47.5989 24.2324 49.985 22.5664 50.794 22.0605C51.1431 21.8418 51.2521 21.4375 50.828 21.2188C50.8046 21.2065 50.7785 21.2007 50.7514 21.2017C50.7243 21.2027 50.697 21.2105 50.6713 21.2246Z" fill="#B6BDC5"/>
<path id="Vector_7" d="M47.7198 26.8164C45.5228 24.7714 49.1624 22.041 50.6714 21.2246C50.697 21.2105 50.7243 21.2027 50.7514 21.2017C50.7785 21.2006 50.8047 21.2065 50.8281 21.2187C51.2521 21.4375 51.1431 21.8418 50.794 22.0605C49.985 22.5664 47.5989 24.2324 47.8067 25.5058C47.9736 26.5234 49.394 26.6777 50.1196 26.9199C50.1495 26.9295 50.1767 26.946 50.199 26.9681C50.2212 26.9902 50.2378 27.0172 50.2473 27.0468C50.3324 27.306 50.2734 27.5026 50.0702 27.6367C50.0179 27.6717 49.9568 27.6822 49.8998 27.666C49.1709 27.4609 48.2853 27.3437 47.7198 26.8164Z" fill="#363940"/>
<path id="Vector_8" d="M81.3838 59.5958L96.3049 31.4395C96.3244 31.4019 96.3455 31.3695 96.3663 31.3451C96.387 31.3206 96.4069 31.3047 96.4241 31.2989C97.0123 31.0958 97.4812 31.28 97.8309 31.8516C98.0001 32.1277 97.9995 32.4265 97.8292 32.7481L82.9609 60.8086C82.9453 60.8389 82.9373 60.8732 82.9379 60.9072C82.9385 60.9411 82.9477 60.9734 82.9643 61.0001C83.8216 62.3542 84.052 63.6947 83.6558 65.0215C82.9933 67.2344 81.0108 68.4512 79.0352 67.7032C78.799 67.6133 78.0968 67.2084 76.9284 66.4883C73.3825 64.3008 69.8366 62.1101 66.2907 59.9161C64.9861 59.1094 63.9421 55.877 63.312 54.3614C63.2654 54.2507 63.2416 54.2572 63.2404 54.3809C63.1893 73.5359 63.1723 92.6902 63.1893 111.844C63.1893 112.806 63.1155 113.559 62.9679 114.104C61.4862 119.533 54.6396 119.502 53.2993 113.977C53.1653 113.425 53.0983 112.522 53.0983 111.268C53.0938 100.384 53.0932 89.4981 53.0966 78.6114C53.0966 78.5865 53.0909 78.5627 53.0806 78.5451C53.0704 78.5275 53.0566 78.5176 53.0421 78.5176L49.859 78.5157C49.8373 78.5157 49.8165 78.5297 49.8012 78.5546C49.7858 78.5795 49.7772 78.6133 49.7772 78.6485C49.7727 89.8373 49.7721 101.023 49.7755 112.207C49.7772 120.008 39.6743 120.32 39.6794 111.904C39.6896 97.6739 39.7526 83.4336 39.6573 69.2032C39.6255 64.4766 39.6255 59.7833 39.6573 55.1231C39.6595 54.8796 39.6147 54.8679 39.5227 55.0879C38.9414 56.4903 38.3606 57.892 37.7804 59.293C37.3444 60.3438 36.5922 61.0632 35.5238 61.4512C31.3977 62.946 27.2727 64.4434 23.1489 65.9434C21.5525 66.5254 20.1939 66.0723 19.0733 64.584C19.0542 64.559 19.0329 64.5388 19.011 64.5249C18.9892 64.511 18.9674 64.5039 18.9473 64.504C17.3588 64.5118 15.8356 64.1596 14.3778 63.4473C14.3176 63.4174 14.2643 63.3744 14.2216 63.3214C14.1789 63.2684 14.1479 63.2067 14.1308 63.1407C12.497 56.7748 10.8637 50.4102 9.23092 44.0469C9.1435 43.7058 9.21844 43.4961 9.45574 43.418C9.50402 43.4017 9.56147 43.4079 9.61753 43.4356C14.25 45.7325 19.0563 43.9766 23.0143 40.9376C23.2936 40.7227 23.481 40.8021 23.5763 41.1758L27.2653 55.5606C27.2691 55.5753 27.275 55.5892 27.2825 55.6014C27.29 55.6137 27.299 55.624 27.309 55.6318C27.319 55.6397 27.3298 55.6448 27.3407 55.647C27.3516 55.6492 27.3625 55.6484 27.3726 55.6446L31.8178 54.0196C31.8446 54.0097 31.8697 53.9929 31.8913 53.9704C31.913 53.9479 31.9309 53.9201 31.9438 53.8887C34.067 48.765 36.1914 43.6446 38.3169 38.5274C39.2928 36.1758 40.0728 35.1934 42.3431 35.1641C50.2081 35.0639 56.4319 35.0645 61.0144 35.1661C62.7601 35.2051 63.6492 36.4122 64.4292 38.2051C66.599 43.1934 68.7665 48.1849 70.9317 53.1797C70.9705 53.2698 71.0366 53.3464 71.1208 53.3985L81.2595 59.6583C81.2781 59.6701 81.3016 59.6702 81.3248 59.6585C81.348 59.6468 81.3692 59.6243 81.3838 59.5958ZM49.9663 37.4317C50.1286 37.8731 50.3444 38.2787 50.6135 38.6485C50.6294 38.671 50.6502 38.6892 50.6744 38.7017C50.6985 38.7143 50.7254 38.7207 50.7531 38.7208H52.584C52.6127 38.7207 52.6407 38.713 52.6654 38.6984C52.6901 38.6837 52.7107 38.6625 52.7253 38.6368L53.3844 37.4903C53.3973 37.4686 53.4019 37.4405 53.3976 37.4104C53.3932 37.3803 53.3802 37.35 53.3606 37.3243C52.6044 36.3008 50.7855 36.3086 49.9901 37.2696C49.9729 37.2906 49.9615 37.3172 49.9573 37.3459C49.953 37.3747 49.9562 37.4045 49.9663 37.4317ZM53.0544 39.4178C53.0545 39.3847 53.0489 39.3519 53.0379 39.3213C53.027 39.2907 53.0109 39.2628 52.9906 39.2394C52.9702 39.2159 52.9461 39.1972 52.9195 39.1845C52.8928 39.1717 52.8643 39.1651 52.8354 39.165L50.4647 39.1555C50.4359 39.1553 50.4073 39.1617 50.3806 39.1743C50.3539 39.1869 50.3296 39.2053 50.3091 39.2286C50.2887 39.2519 50.2724 39.2797 50.2613 39.3102C50.2501 39.3407 50.2443 39.3734 50.2442 39.4065L50.2401 40.7581C50.24 40.7912 50.2456 40.824 50.2566 40.8546C50.2675 40.8852 50.2836 40.913 50.3039 40.9365C50.3243 40.96 50.3484 40.9786 50.3751 40.9914C50.4017 41.0042 50.4302 41.0108 50.4591 41.0109L52.8298 41.0204C52.8587 41.0205 52.8872 41.0141 52.9139 41.0016C52.9406 40.989 52.9649 40.9706 52.9854 40.9472C53.0059 40.9239 53.0221 40.8962 53.0333 40.8657C53.0444 40.8352 53.0502 40.8024 53.0503 40.7693L53.0544 39.4178ZM50.765 41.5645C50.094 46.7859 49.4372 51.9519 48.7945 57.0626C48.7525 57.4037 48.8507 57.7377 49.0892 58.0645C49.9226 59.2051 50.7446 60.3262 51.5553 61.4278C51.5676 61.4446 51.5832 61.4578 51.6011 61.4664C51.619 61.475 51.6387 61.4788 51.6588 61.4775C51.6789 61.4761 51.699 61.4698 51.7176 61.4589C51.7362 61.4479 51.7529 61.4326 51.7665 61.4141L54.4489 57.754C54.4837 57.706 54.5096 57.6517 54.5249 57.5945C54.5401 57.5373 54.5444 57.4785 54.5375 57.4219L52.5721 41.6036C52.5669 41.5623 52.5523 41.5245 52.531 41.4972C52.5097 41.4699 52.4831 41.455 52.4562 41.4551H50.8808C50.8525 41.4551 50.8251 41.4661 50.8038 41.4862C50.7825 41.5063 50.7688 41.5341 50.765 41.5645ZM22.9683 41.834C19.1959 44.8106 14.5157 46.1114 10.091 44.4766C10.0354 44.4558 10.0161 44.4786 10.0331 44.545L14.698 62.7325C14.7048 62.7581 14.7165 62.7815 14.7321 62.8011C14.7477 62.8207 14.7669 62.836 14.7882 62.8458C19.1295 64.8165 24.0038 63.3868 27.7371 60.3555C27.7583 60.3386 27.7748 60.3162 27.7843 60.2916C27.7938 60.2671 27.7958 60.2416 27.7899 60.2188L23.0858 41.8829C23.0822 41.8694 23.0759 41.857 23.0675 41.8468C23.059 41.8366 23.0487 41.8288 23.0372 41.824C23.0258 41.8193 23.0136 41.8177 23.0016 41.8194C22.9896 41.8212 22.9782 41.8262 22.9683 41.834Z" fill="#B6BDC5"/>
<path id="Vector_9" d="M49.9901 37.2695C50.7855 36.3086 52.6044 36.3008 53.3606 37.3242C53.3802 37.35 53.3932 37.3803 53.3976 37.4103C53.4019 37.4404 53.3973 37.4685 53.3844 37.4902L52.7253 38.6367C52.7107 38.6625 52.6901 38.6836 52.6654 38.6983C52.6407 38.713 52.6127 38.7207 52.584 38.7207H50.7531C50.7254 38.7207 50.6985 38.7142 50.6744 38.7017C50.6502 38.6892 50.6294 38.671 50.6135 38.6484C50.3444 38.2786 50.1286 37.873 49.9663 37.4316C49.9562 37.4045 49.953 37.3747 49.9573 37.3459C49.9615 37.3171 49.9729 37.2906 49.9901 37.2695Z" fill="#363940"/>
<path id="Vector_10" d="M52.8354 39.1649L50.4647 39.1554C50.3434 39.1549 50.2447 39.2673 50.2442 39.4065L50.2401 40.758C50.2397 40.8972 50.3377 41.0104 50.459 41.0109L52.8298 41.0204C52.9511 41.0209 53.0498 40.9084 53.0503 40.7693L53.0544 39.4177C53.0548 39.2786 52.9568 39.1654 52.8354 39.1649Z" fill="#363940"/>
<path id="Vector_11" d="M50.7651 41.5645C50.7688 41.5341 50.7825 41.5063 50.8038 41.4862C50.8251 41.466 50.8525 41.455 50.8809 41.4551H52.4563C52.4832 41.4549 52.5097 41.4699 52.531 41.4972C52.5524 41.5245 52.5669 41.5623 52.5721 41.6035L54.5375 57.4219C54.5444 57.4784 54.5401 57.5372 54.5249 57.5944C54.5096 57.6516 54.4837 57.706 54.4489 57.7539L51.7665 61.4141C51.7529 61.4326 51.7362 61.4479 51.7176 61.4588C51.699 61.4698 51.6789 61.4761 51.6588 61.4774C51.6387 61.4787 51.619 61.4749 51.6011 61.4664C51.5832 61.4578 51.5676 61.4446 51.5553 61.4277C50.7446 60.3262 49.9226 59.2051 49.0892 58.0645C48.8507 57.7376 48.7525 57.4036 48.7945 57.0625C49.4372 51.9518 50.094 46.7858 50.7651 41.5645Z" fill="#363940"/>
<path id="Vector_12" d="M10.091 44.4766C14.5157 46.1114 19.1959 44.8106 22.9683 41.834C22.9782 41.8262 22.9896 41.8212 23.0016 41.8194C23.0136 41.8177 23.0258 41.8192 23.0372 41.824C23.0487 41.8288 23.059 41.8366 23.0675 41.8468C23.0759 41.857 23.0822 41.8694 23.0858 41.8828L27.7899 60.2188C27.7958 60.2415 27.7938 60.267 27.7843 60.2916C27.7748 60.3162 27.7583 60.3386 27.7371 60.3555C24.0038 63.3867 19.1295 64.8164 14.7882 62.8457C14.7669 62.836 14.7477 62.8207 14.7321 62.8011C14.7165 62.7815 14.7048 62.758 14.6979 62.7324L10.0331 44.5449C10.0161 44.4785 10.0354 44.4558 10.091 44.4766Z" fill="#363940"/>
</g>
</svg>
