<svg width="48" height="48" viewBox="0 0 48 48" fill="none" xmlns="http://www.w3.org/2000/svg">
<g id="nimbus:log-out">
<path id="Vector" d="M3.90002 11.25H21.54V7.5H3.90002C2.90546 7.5 1.95164 7.89509 1.24837 8.59835C0.545113 9.30161 0.150024 10.2554 0.150024 11.25V36.75C0.150024 37.7446 0.545113 38.6984 1.24837 39.4017C1.95164 40.1049 2.90546 40.5 3.90002 40.5H21.54V36.75H3.90002V11.25Z" fill="#999999"/>
<path id="Vector_2" d="M46.2 21L34.2 12.78L32.07 15.78L41.31 22.08H14.13V25.86H41.34L32.1 32.19L34.23 35.19L46.2 27C46.6712 26.6545 47.0544 26.2029 47.3186 25.6817C47.5827 25.1604 47.7204 24.5843 47.7204 24C47.7204 23.4157 47.5827 22.8396 47.3186 22.3184C47.0544 21.7972 46.6712 21.3455 46.2 21Z" fill="#999999"/>
</g>
</svg>
