<svg width="72" height="72" viewBox="0 0 72 72" fill="none" xmlns="http://www.w3.org/2000/svg">
<g id="books 1" clip-path="url(#clip0_103_501)">
<path id="Vector" d="M27.3461 -0.000241886C26.9442 0.0595261 26.5604 0.207014 26.2218 0.431758C26.2218 0.431758 22.7187 2.63607 18.9526 5.02037C15.1864 7.40191 10.9966 10.0271 10.0384 10.5588C9.97934 10.5845 9.92115 10.6122 9.86398 10.6419C6.38583 12.7881 5.66306 16.2939 5.53844 18.2601C5.53013 18.3515 5.53844 18.4262 5.53844 18.5231C5.50798 19.2598 5.53844 19.7333 5.53844 19.7333V55.9078C5.53844 61.1638 11.6667 63.6921 17.4821 63.6921C19.4206 63.6921 21.3591 63.3791 23.0206 62.8253C24.1283 62.2715 24.9231 61.1638 24.9231 60.0561V30.9791C24.9231 24.6099 26.3077 21.6191 30.4615 19.1268C31.5692 18.573 43.1834 10.5561 43.1834 10.5561C43.7372 10.0022 44.3077 8.87791 44.3077 8.04714V7.78684C44.3077 6.67914 43.7538 5.83176 42.9231 5.27791C42.0923 4.72407 40.9846 4.72407 40.1538 5.27791C39.8769 5.55484 22.9846 16.9281 19.3846 18.8665C15.7846 21.0819 12.4255 21.6164 11.5947 20.5087C11.3372 20.2511 11.1129 19.4619 11.0769 18.6921V18.5176C11.0797 17.7644 11.2735 16.3465 12.8077 15.4022C14.364 14.5355 18.2271 12.0681 21.9821 9.69207C23.5689 8.68684 23.7655 8.57884 25.0089 7.78684C25.1726 8.46334 25.585 9.0534 26.1641 9.43956C26.7432 9.82572 27.4464 9.97966 28.1339 9.87073C28.8213 9.7618 29.4425 9.39799 29.8739 8.85173C30.3052 8.30546 30.515 7.6168 30.4615 6.92284V2.76899C30.4646 2.37428 30.3833 1.98346 30.223 1.62275C30.0627 1.26203 29.8272 0.93975 29.5321 0.67751C29.2371 0.415269 28.8895 0.219128 28.5124 0.102237C28.1354 -0.0146543 27.7378 -0.0495946 27.3461 -0.000241886ZM49.5 9.69207C49.0596 9.7653 48.6435 9.94392 48.2871 10.2127C48.2871 10.2127 34.3467 19.5921 31.932 21.201C31.9027 21.2299 31.8741 21.2594 31.8461 21.2896C29.8412 22.7933 28.6532 24.5822 28.1243 26.2188C27.8279 27.1421 27.6821 28.1071 27.6923 29.0767V29.9434C27.6883 30.0292 27.6883 30.1152 27.6923 30.201V63.6921C27.6923 68.9536 33.7514 71.9998 39.2898 71.9998C41.7821 71.9998 44.0307 71.4625 45.6923 70.3548C49.0154 68.4164 65.0769 55.905 65.0769 55.905C65.9077 55.3511 66.4615 54.5702 66.4615 53.7395V17.7395C66.4615 16.3548 65.9243 15.5241 64.8166 14.9702C63.9858 14.4164 62.6206 14.6767 61.7898 15.2305C57.3591 18.5536 45.432 27.9358 42.6627 29.5973C38.7858 31.8127 35.1332 32.3665 33.7486 30.9819C33.1947 30.4281 33.2307 29.9075 33.2307 29.0767C33.2474 28.6004 33.3 28.1905 33.4052 27.8638C33.5603 27.3819 33.876 26.7893 35.0474 25.8754C35.1027 25.8311 35.0751 25.8339 35.1332 25.7896C37.1354 24.4521 43.2581 20.2788 47.2514 17.565C47.4776 18.1719 47.9094 18.6803 48.4717 19.0018C49.034 19.3233 49.6912 19.4375 50.329 19.3246C50.9668 19.2116 51.5449 18.8787 51.9626 18.3837C52.3803 17.8886 52.6113 17.2629 52.6154 16.6151V12.4613C52.6185 12.0666 52.5371 11.6758 52.3769 11.3151C52.2166 10.9543 51.981 10.6321 51.686 10.3698C51.391 10.1076 51.0433 9.91144 50.6663 9.79454C50.2893 9.67765 49.8916 9.64271 49.5 9.69207ZM60.9231 29.9434V35.4819L47.0769 46.2099V40.6715L60.9231 29.9434Z" fill="#B6BDC5"/>
</g>
<defs>
<clipPath id="clip0_103_501">
<rect width="72" height="72" fill="white"/>
</clipPath>
</defs>
</svg>
