<svg width="73" height="81" viewBox="0 0 73 81" fill="none" xmlns="http://www.w3.org/2000/svg">
<g id="icons">
<g id="XMLID_44_">
<g id="XMLID_25_">
<path id="XMLID_123_" d="M50.6 2H22.55V14.2833C26.5833 13.1833 36.6667 15.9333 36.6667 15.9333C36.6667 15.9333 47.4833 13.3667 50.6 14.2833V2Z" stroke="#B6BDC5" stroke-width="3.66667" stroke-miterlimit="10"/>
<path id="XMLID_127_" d="M9.90002 2H63.8" stroke="#B6BDC5" stroke-width="3.66667" stroke-miterlimit="10"/>
<path id="XMLID_128_" d="M57.9333 2V28.2167" stroke="#B6BDC5" stroke-width="3.66667" stroke-miterlimit="10"/>
</g>
<g id="XMLID_558_">
<path id="XMLID_562_" d="M6.96667 79V63.6C6.96667 62.1333 7.88334 60.85 9.35001 60.3L28.2333 53.8833V43.25" stroke="#B6BDC5" stroke-width="3.66667" stroke-miterlimit="10"/>
<path id="XMLID_561_" d="M66 79V63.6C66 62.1333 65.0833 60.85 63.6167 60.3L44.7333 53.8833V43.25" stroke="#B6BDC5" stroke-width="3.66667" stroke-miterlimit="10"/>
<path id="XMLID_36_" d="M22.3667 19.4166L23.65 36.4666C23.8334 38.85 25.1167 40.8666 27.1334 41.9666L34.1 46.55H38.6834L45.8334 41.9666C47.85 40.8666 49.3167 38.85 49.3167 36.4666L50.6 19.4166" stroke="#B6BDC5" stroke-width="3.66667" stroke-miterlimit="10"/>
<path id="XMLID_559_" d="M28.2333 53.8834L35.3833 60.1168H37.95L45.1 53.8834" stroke="#B6BDC5" stroke-width="3.66667" stroke-miterlimit="10"/>
</g>
<path id="XMLID_556_" d="M0 79H72.9667" stroke="#B6BDC5" stroke-width="3.66667" stroke-miterlimit="10"/>
<path id="XMLID_40_" d="M35.3834 60.1166L28.6 69.4666C28.4167 69.6499 28.05 69.6499 27.8667 69.4666L22.3667 56.0833" stroke="#B6BDC5" stroke-width="3.66667" stroke-miterlimit="10"/>
<path id="XMLID_48_" d="M37.0333 60.1166L43.8167 69.4666C44 69.6499 44.3667 69.6499 44.55 69.4666L50.05 56.0833" stroke="#B6BDC5" stroke-width="3.66667" stroke-miterlimit="10"/>
</g>
</g>
</svg>
